<svg xmlns="http://www.w3.org/2000/svg" viewBox="0 0 27.244 30.195">
  <defs>
    <style>
      .cls-1 {
        fill: #fff;
      }
    </style>
  </defs>
  <g id="Group_36" data-name="Group 36" transform="translate(0 0)">
    <path id="Path_5" data-name="Path 5" class="cls-1" d="M25.571,12.216,4.966.438A3.319,3.319,0,0,0,0,3.318V26.875a3.318,3.318,0,0,0,4.966,2.882L25.571,17.979a3.318,3.318,0,0,0,0-5.762ZM16.643,9.431l-2.83,3.941L7.046,3.946ZM3.189,28.171a1.29,1.29,0,0,1-1.176-1.293V3.318a1.3,1.3,0,0,1,1.174-1.3L12.575,15.1Zm3.857-1.921,6.767-9.426,2.828,3.941ZM24.573,16.232,18.4,19.76,15.053,15.1,18.4,10.436l6.173,3.53a1.305,1.305,0,0,1,0,2.266Zm0,0" transform="translate(0 0)"/>
  </g>
</svg>
