<svg xmlns="http://www.w3.org/2000/svg" xmlns:xlink="http://www.w3.org/1999/xlink" viewBox="0 0 570 461"><defs><style>.a,.k,.p{fill:#fff;}.b{fill:#fbf8f8;}.c,.r{fill:none;stroke:#707070;}.c{opacity:0.15;}.d,.i{fill:#3b3b39;}.d{font-size:18px;}.d,.f,.p,.q{font-family:TitilliumWeb-SemiBold, Titillium Web;font-weight:600;}.e,.n{fill:#a9afaf;}.f,.o,.q{fill:#393b3b;}.f,.g,.j{font-size:16px;}.g,.j{fill:#707070;}.g,.j,.n{font-family:TitilliumWeb-Regular, Titillium Web;}.h{fill:#f6cf65;}.j{letter-spacing:0.017em;}.k{stroke:#fff;stroke-width:0.2px;}.l{fill:#ff6965;}.m{fill:#8bcc82;}.n,.q{font-size:21px;}.p{font-size:22px;}.r{opacity:0.2;}.s{filter:url(#c);}.t{filter:url(#a);}</style><filter id="a" x="33" y="0" width="504" height="401" filterUnits="userSpaceOnUse"><feOffset input="SourceAlpha"/><feGaussianBlur stdDeviation="20" result="b"/><feFlood flood-color="#000e6a" flood-opacity="0.078"/><feComposite operator="in" in2="b"/><feComposite in="SourceGraphic"/></filter><filter id="c" x="0" y="263" width="570" height="198" filterUnits="userSpaceOnUse"><feOffset input="SourceAlpha"/><feGaussianBlur stdDeviation="20" result="d"/><feFlood flood-color="#142c34" flood-opacity="0.11"/><feComposite operator="in" in2="d"/><feComposite in="SourceGraphic"/></filter></defs><g transform="translate(-48 -1298)"><g class="t" transform="matrix(1, 0, 0, 1, 48, 1298)"><path class="a" d="M10-93H374a10,10,0,0,1,10,10V178a10,10,0,0,1-10,10H10A10,10,0,0,1,0,178V-83A10,10,0,0,1,10-93Z" transform="translate(93 153)"/></g><path class="b" d="M10-93H374c5.523,0,10,2.327,10,5.2V47.845c0,2.87-4.477,5.2-10,5.2H10c-5.523,0-10-2.327-10-5.2V-87.8C0-90.673,4.477-93,10-93Z" transform="translate(141 1451)"/><g transform="translate(147 1051)"><g transform="translate(-5 307)"><line class="c" x2="383.312" transform="translate(-0.5 147.235)"/><text class="d" transform="translate(79.856 32.977)"><tspan x="0" y="0">Terminal 2 Passengers</tspan></text><g transform="translate(305.451 11.978)"><g transform="translate(16.969)"><ellipse class="e" cx="13.975" cy="13.975" rx="13.975" ry="13.975" transform="translate(0 0)"/><g transform="translate(6.448 5.45)"><path class="a" d="M-.1,305.374c.038-.285.068-.573.118-.856A7.521,7.521,0,0,1,3.2,299.606a5.931,5.931,0,0,0,4.222,1.717,5.949,5.949,0,0,0,4.225-1.723c.238.188.488.367.717.57a7.437,7.437,0,0,1,2.532,4.813c.015.129.035.262.053.391v.47H-.1C-.1,305.689-.1,305.53-.1,305.374Z" transform="translate(0.1 -290.791)"/><path class="a" d="M107.416,0c.3.059.6.1.888.179A4.505,4.505,0,1,1,106.119.1c.194-.044.394-.068.591-.1Z" transform="translate(-99.533)"/></g></g><text class="f" transform="translate(0 18.998)"><tspan x="0" y="0">7 </tspan></text></g><text class="g" transform="translate(101.817 105.842)"><tspan x="0" y="0">10:30 AM</tspan></text><g transform="translate(79.856 92.833)"><path class="e" d="M16.324,7.652v1.02c-.01.048-.019.092-.029.14-.086.5-.137,1.011-.265,1.5A8.146,8.146,0,0,1,9.568,16.2c-.3.048-.6.083-.9.124H7.652c-.041-.01-.08-.019-.121-.026-.424-.067-.854-.105-1.272-.2A8.162,8.162,0,0,1,.124,9.568c-.051-.3-.083-.6-.124-.9V7.652c.01-.048.019-.092.029-.14C.083,7.139.118,6.762.194,6.4A8.166,8.166,0,0,1,6.74.124c.3-.048.609-.083.912-.124h1.02c.041.01.083.019.124.026C9.3.112,9.82.163,10.314.293A8.143,8.143,0,0,1,16.2,6.756C16.248,7.053,16.283,7.352,16.324,7.652ZM12.23,9.176V7.135H9.179V2.053H7.151V9.176Z"/></g><text class="g" transform="translate(101.817 62.919)"><tspan x="0" y="0">Hotel Luxury</tspan></text><circle class="h" cx="6.488" cy="6.488" r="6.488" transform="translate(79.856 51.907)"/><g transform="translate(209.195 50.908)"><g transform="translate(0 0)"><path class="i" d="M18.4,0a5.519,5.519,0,0,0-5.512,5.513,5.377,5.377,0,0,0,.482,2.25,34.757,34.757,0,0,0,4.8,7.1.307.307,0,0,0,.465,0,34.774,34.774,0,0,0,4.8-7.1,5.375,5.375,0,0,0,.482-2.25A5.519,5.519,0,0,0,18.4,0Zm0,8.376a2.863,2.863,0,1,1,2.863-2.863A2.867,2.867,0,0,1,18.4,8.376Z" transform="translate(-12.883)"/></g></g><text class="j" transform="translate(229.587 63.917)"><tspan x="0" y="0">Terminal-2</tspan></text><text class="f" transform="translate(192.654 105.842)"><tspan x="0" y="0">3 mins </tspan></text><circle class="e" cx="16.325" cy="16.325" r="16.325" transform="translate(34.937 11.978)"/><g transform="translate(41.925 18.966)"><g transform="translate(0 0)"><path class="k" d="M19.535,9.415a.412.412,0,0,0-.373-.237H17.943a9.041,9.041,0,1,0-1.059,6.171.823.823,0,0,0-1.424-.824,7.41,7.41,0,1,1,.8-5.347H15.051a.411.411,0,0,0-.317.675l2.057,2.468a.411.411,0,0,0,.632,0l2.057-2.468A.411.411,0,0,0,19.535,9.415Z" transform="translate(0 -1.775)"/><path class="k" d="M19.709,6.713a.822.822,0,0,0-.823.823v4.991a1.438,1.438,0,0,0,.823,2.618,1.422,1.422,0,0,0,.607-.139l2.861,1.651a.814.814,0,0,0,.411.111A.822.822,0,0,0,24,15.233l-2.864-1.654a1.433,1.433,0,0,0-.6-1.052V7.536A.824.824,0,0,0,19.709,6.713Zm0,7.609a.617.617,0,1,1,.617-.616A.617.617,0,0,1,19.709,14.322Z" transform="translate(-10.661 -4.656)"/></g></g><g transform="translate(262.528 81.823)"><g transform="translate(50.908)"><path class="h" d="M18.633,0A18.634,18.634,0,1,1,0,18.634,18.634,18.634,0,0,1,18.633,0Z" transform="translate(0 0)"/><path class="a" d="M1.491,10.441A1.491,1.491,0,0,1,0,8.949,1.524,1.524,0,0,1,.021,8.7,1.524,1.524,0,0,1,0,8.452V1.492a1.491,1.491,0,1,1,2.983,0V7.458H14.418a1.491,1.491,0,0,1,0,2.983Z" transform="translate(8.56 19.21) rotate(-45)"/></g><g transform="translate(0 0.03)"><path class="l" d="M18.633,0A18.634,18.634,0,1,1,0,18.634,18.634,18.634,0,0,1,18.633,0Z" transform="translate(0 0)"/><path class="a" d="M8.459,18.411V11.443H1.491a1.492,1.492,0,0,1,0-2.984H8.459V1.491a1.491,1.491,0,1,1,2.983,0V8.459h6.969a1.492,1.492,0,0,1,0,2.984H11.442v6.968a1.491,1.491,0,1,1-2.983,0Z" transform="translate(4.802 19.064) rotate(-45)"/></g></g></g><g transform="translate(-3.503 468.709)"><text class="d" transform="translate(78.359 20.998)"><tspan x="0" y="0">Philip Health</tspan></text><g transform="translate(303.953 0)"><g transform="translate(16.969)"><ellipse class="e" cx="13.975" cy="13.975" rx="13.975" ry="13.975" transform="translate(0 0)"/><g transform="translate(6.448 5.45)"><path class="a" d="M-.1,305.374c.038-.285.068-.573.118-.856A7.521,7.521,0,0,1,3.2,299.606a5.931,5.931,0,0,0,4.222,1.717,5.949,5.949,0,0,0,4.225-1.723c.238.188.488.367.717.57a7.437,7.437,0,0,1,2.532,4.813c.015.129.035.262.053.391v.47H-.1C-.1,305.689-.1,305.53-.1,305.374Z" transform="translate(0.1 -290.791)"/><path class="a" d="M107.416,0c.3.059.6.1.888.179A4.505,4.505,0,1,1,106.119.1c.194-.044.394-.068.591-.1Z" transform="translate(-99.533)"/></g></g><text class="f" transform="translate(0 18.998)"><tspan x="0" y="0">4</tspan></text></g><text class="g" transform="translate(100.32 89.871)"><tspan x="0" y="0">10:30 AM</tspan></text><g transform="translate(78.359 76.862)"><path class="e" d="M16.324,7.652v1.02c-.01.048-.019.092-.029.14-.086.5-.137,1.011-.265,1.5A8.146,8.146,0,0,1,9.568,16.2c-.3.048-.6.083-.9.124H7.652c-.041-.01-.08-.019-.121-.026-.424-.067-.854-.105-1.272-.2A8.162,8.162,0,0,1,.124,9.568c-.051-.3-.083-.6-.124-.9V7.652c.01-.048.019-.092.029-.14C.083,7.139.118,6.762.194,6.4A8.166,8.166,0,0,1,6.74.124c.3-.048.609-.083.912-.124h1.02c.041.01.083.019.124.026C9.3.112,9.82.163,10.314.293A8.143,8.143,0,0,1,16.2,6.756C16.248,7.053,16.283,7.352,16.324,7.652ZM12.23,9.176V7.135H9.179V2.053H7.151V9.176Z"/></g><text class="g" transform="translate(100.32 50.941)"><tspan x="0" y="0">Terminal-1</tspan></text><circle class="h" cx="6.488" cy="6.488" r="6.488" transform="translate(78.359 39.928)"/><g transform="translate(201.698 38.93)"><g transform="translate(0 0)"><path class="i" d="M18.4,0a5.519,5.519,0,0,0-5.512,5.513,5.377,5.377,0,0,0,.482,2.25,34.757,34.757,0,0,0,4.8,7.1.307.307,0,0,0,.465,0,34.774,34.774,0,0,0,4.8-7.1,5.375,5.375,0,0,0,.482-2.25A5.519,5.519,0,0,0,18.4,0Zm0,8.376a2.863,2.863,0,1,1,2.863-2.863A2.867,2.867,0,0,1,18.4,8.376Z" transform="translate(-12.883)"/></g></g><text class="j" transform="translate(222.09 51.939)"><tspan x="0" y="0">Dallas Rental Cars</tspan></text><circle class="m" cx="16.325" cy="16.325" r="16.325" transform="translate(33.44 0)"/><path class="a" d="M1.4,9.832A1.4,1.4,0,0,1,0,8.427a1.436,1.436,0,0,1,.019-.234A1.435,1.435,0,0,1,0,7.96V1.4a1.4,1.4,0,1,1,2.809,0V7.023H13.578a1.4,1.4,0,0,1,0,2.809Z" transform="translate(41.425 16.956) rotate(-45)"/></g></g><g transform="translate(0 1049)"><g class="s" transform="matrix(1, 0, 0, 1, 48, 249)"><path class="a" d="M10,0H440a10,10,0,0,1,10,10V78a0,0,0,0,1,0,0H0a0,0,0,0,1,0,0V10A10,10,0,0,1,10,0Z" transform="translate(60 323)"/></g><g transform="translate(1)"><text class="n" transform="translate(125 619.468)"><tspan x="0" y="0">17 Passengers</tspan></text><g transform="translate(388.907 589)"><path class="o" d="M4.758,0H144.335c2.628,0,4.758,1.738,4.758,3.881v38.81c0,2.143-2.13,3.881-4.758,3.881H4.758C2.13,46.572,0,44.834,0,42.691V3.881C0,1.738,2.13,0,4.758,0Z" transform="translate(0)"/><g transform="translate(25.873 5.175)"><text class="p" transform="translate(0 25)"><tspan x="0" y="0">Accept All</tspan></text></g></g><text class="q" transform="translate(289.295 619.468)"><tspan x="0" y="0">2 New</tspan></text><line class="r" y2="21.992" transform="translate(278.299 601.29)"/></g></g></g></svg>