<svg xmlns="http://www.w3.org/2000/svg" viewBox="0 0 29.646 26.689">
  <defs>
    <style>
      .cls-1 {
        fill: #fff;
      }
    </style>
  </defs>
  <path id="Path_4" data-name="Path 4" class="cls-1" d="M0,16.356V12.332a.679.679,0,0,1,.68-.669H7.786l-3.1,5.361H.68A.674.674,0,0,1,0,16.356Zm5.065,8.229L2.8,26.134c-.306.208-.522.069-.479-.288l.3-2.637a.416.416,0,0,1,.663-.336l1.753,1.008a.381.381,0,0,1,.027.7Zm.541-1.479-1.753-1a.674.674,0,0,1-.247-.917L11.738,7.1a.675.675,0,0,1,.918-.256l1.76,1a.685.685,0,0,1,.247.921l-8.132,14.1a.675.675,0,0,1-.925.239ZM11.8,17.024l3.1-5.361h1.78l2.516,5.361Zm10.085,1.6c-.71-.35-4.214-8.39-5.1-10.485-.912-2.1-3.613-7.686-2.74-8.119.622-.309,2.862,4.091,4.545,6.727s5.182,9.445,5.616,10.222-.41,1.422-.89,1.622a1.347,1.347,0,0,1-1.435.033Zm2.295,3.7-1.052-1.659a.647.647,0,0,1,.239-.953l1.007-.519a.737.737,0,0,1,.99.325l.838,1.6a.786.786,0,0,1-.283,1.034l-.724.431a.763.763,0,0,1-1.015-.254Zm3.9,4.367c-.229-.717-1.911-.755-2.663-1.82a1.2,1.2,0,0,1,.126-1.853c3.064-1.716,2.537,3.673,2.537,3.673Zm1.57-10.333a.665.665,0,0,1-.672.668H25.416a2.722,2.722,0,0,0-.208-.608c-.1-.169-.335-.607-.66-1.222-.467-.9-1.152-2.182-1.876-3.528h6.3a.663.663,0,0,1,.67.664Zm0,0" transform="translate(0 -0.001)"/>
</svg>
