<svg xmlns="http://www.w3.org/2000/svg" viewBox="0 0 39.396 34.46">
  <defs>
    <style>
      .cls-1 {
        fill: #2c9984;
        stroke: #2c9984;
      }

      .cls-1, .cls-2 {
        stroke-width: 0.5px;
      }

      .cls-2, .cls-3 {
        fill: #333;
      }

      .cls-2 {
        stroke: #333;
      }
    </style>
  </defs>
  <g id="Group_954" data-name="Group 954" transform="translate(0.25 0.25)">
    <path id="Path_878" data-name="Path 878" class="cls-1" d="M5.445,138.306a.707.707,0,0,0,.286.056.738.738,0,0,0,.5-.2l4.984-4.77h9.372a3.532,3.532,0,0,0,3.53-3.53v-5.318a.723.723,0,0,0-1.447,0v5.318a2.085,2.085,0,0,1-2.083,2.083H10.923a.738.738,0,0,0-.5.2l-3.975,3.8v-3.267a.726.726,0,0,0-.723-.723H3.53a2.085,2.085,0,0,1-2.083-2.083V119.458a2.092,2.092,0,0,1,2.083-2.091h8.53a.723.723,0,1,0,0-1.447H3.53A3.532,3.532,0,0,0,0,119.45v10.414a3.532,3.532,0,0,0,3.53,3.53H5.008v4.253a.721.721,0,0,0,.437.66Zm0,0" transform="translate(0 -104.401)"/>
    <path id="Path_879" data-name="Path 879" class="cls-2" d="M159.885,17.6l5.024,4.809a.741.741,0,0,0,.787.143.721.721,0,0,0,.437-.66V17.6h1.494a3.557,3.557,0,0,0,3.553-3.553V3.553A3.557,3.557,0,0,0,167.628,0H150.433a3.557,3.557,0,0,0-3.553,3.553V14.047a3.557,3.557,0,0,0,3.553,3.553Zm-11.558-3.553V3.553a2.11,2.11,0,0,1,2.107-2.107H167.62a2.11,2.11,0,0,1,2.107,2.107V14.047a2.11,2.11,0,0,1-2.107,2.107H165.4a.726.726,0,0,0-.723.723V20.2l-4.014-3.84a.723.723,0,0,0-.5-.2h-9.73a2.112,2.112,0,0,1-2.107-2.115Zm0,0" transform="translate(-132.285)"/>
    <path id="Path_880" data-name="Path 880" class="cls-3" d="M262.563,84.167a.733.733,0,1,0-.509-.215.691.691,0,0,0,.509.215Zm0,0" transform="translate(-235.822 -74.5)"/>
    <path id="Path_881" data-name="Path 881" class="cls-3" d="M289.6,84.167a.733.733,0,1,0-.509-.215.678.678,0,0,0,.509.215Zm0,0" transform="translate(-260.175 -74.5)"/>
    <path id="Path_882" data-name="Path 882" class="cls-3" d="M235.6,84.167a.733.733,0,1,0-.509-.215.691.691,0,0,0,.509.215Zm0,0" transform="translate(-211.54 -74.5)"/>
  </g>
</svg>
