<svg id="Group_953" data-name="Group 953" xmlns="http://www.w3.org/2000/svg" viewBox="0 0 41.695 36.32">
  <defs>
    <style>
      .cls-1 {
        fill: #333;
      }

      .cls-2 {
        fill: #2c9984;
      }
    </style>
  </defs>
  <path id="Path_885" data-name="Path 885" class="cls-1" d="M14.251,111.3H6.433a6.433,6.433,0,0,0,0,12.867h22.6a3.827,3.827,0,1,0,0-2.443H6.433a3.99,3.99,0,0,1,0-7.981h7.818a6.433,6.433,0,0,0,0-12.867h-6.8a3.841,3.841,0,0,0-2.4-2.4H2.606a3.827,3.827,0,1,0,4.848,4.848h6.8a3.99,3.99,0,1,1,0,7.981Zm18.4,10.261a1.384,1.384,0,1,1-1.384,1.384A1.386,1.386,0,0,1,32.656,121.559ZM3.827,103.481A1.384,1.384,0,1,1,5.212,102.1,1.386,1.386,0,0,1,3.827,103.481Z" transform="translate(0 -90.451)"/>
  <path id="Path_886" data-name="Path 886" class="cls-2" d="M357.827,64a3.827,3.827,0,1,0,3.827,3.827A3.831,3.831,0,0,0,357.827,64Zm0,5.212a1.384,1.384,0,1,1,1.384-1.384A1.386,1.386,0,0,1,357.827,69.212Z" transform="translate(-325.172 -58.788)"/>
  <path id="Path_887" data-name="Path 887" class="cls-2" d="M299.039,0a9.039,9.039,0,0,0-5.812,15.962l4.724,9.267a1.221,1.221,0,0,0,2.176,0l4.724-9.267A9.039,9.039,0,0,0,299.039,0Zm4.084,14.219a1.225,1.225,0,0,0-.331.4l-3.753,7.362-3.753-7.362a1.214,1.214,0,0,0-.331-.4,6.6,6.6,0,1,1,8.168,0Z" transform="translate(-266.384)"/>
</svg>
