<svg xmlns="http://www.w3.org/2000/svg" viewBox="0 0 31.473 31.471">
  <defs>
    <style>
      .cls-1 {
        fill: #333;
      }

      .cls-2 {
        fill: #2c9984;
      }
    </style>
  </defs>
  <g id="Group_955" data-name="Group 955" transform="translate(0 -0.001)">
    <path id="Path_883" data-name="Path 883" class="cls-1" d="M18.6,31.472H2.587a4.933,4.933,0,0,1-1.217-.567A3.667,3.667,0,0,1,0,28.885V14.042c.071-.063.052-.151.062-.23A15.292,15.292,0,0,1,3.607,5.665,15.45,15.45,0,0,1,14.612.048a15.118,15.118,0,0,1,7.215,1.188A15.721,15.721,0,0,1,31.471,15.9c0,1.55,0,3.1,0,4.65a3.618,3.618,0,0,1-.064.8,3.4,3.4,0,0,1-5.931,1.547,4,4,0,0,1-.678-1.238,10.662,10.662,0,0,1-9.095,4.918,10.644,10.644,0,0,1-9.087-4.906.688.688,0,0,0-.061.1A3.4,3.4,0,0,1,1.97,23.82c-.176-.078-.184,0-.184.138,0,1.406-.012,2.813.007,4.219a1.511,1.511,0,0,0,1.526,1.5c2.925.013,5.851,0,8.776.008.142,0,.206-.025.231-.193a.865.865,0,0,1,.877-.79c1.673-.01,3.346-.015,5.019,0a.9.9,0,0,1,.816,1.226c-.025.075-.1.145-.056.231A.989.989,0,0,1,18.6,31.472Zm6.078-15.706a8.973,8.973,0,1,0-8.971,8.974A9.012,9.012,0,0,0,24.678,15.766Zm4.542-3.2a13.87,13.87,0,0,0-27.008-.012c.1-.025.2-.048.3-.072a3.3,3.3,0,0,1,2.415.289c.333.173.328.181.442-.177a10.673,10.673,0,0,1,3.9-5.5A10.573,10.573,0,0,1,16.3,4.977a10.465,10.465,0,0,1,5.413,1.806,10.616,10.616,0,0,1,4.345,5.894c.076.253.154.261.368.136a3.281,3.281,0,0,1,2.347-.365C28.919,12.476,29.061,12.525,29.22,12.568ZM4.871,18.247h.007V15.816c0-.031,0-.062,0-.092a1.54,1.54,0,0,0-3.08,0c-.019,1.682-.01,3.365,0,5.047A1.431,1.431,0,0,0,2.3,21.857a1.469,1.469,0,0,0,1.6.288A1.418,1.418,0,0,0,4.865,20.8C4.889,19.951,4.871,19.1,4.871,18.247Zm21.668-.015h-.006c0,.841-.019,1.683,0,2.524a1.54,1.54,0,0,0,3.079-.028c.015-1.662.007-3.324,0-4.986a1.443,1.443,0,0,0-.508-1.114,1.473,1.473,0,0,0-1.633-.278,1.416,1.416,0,0,0-.934,1.33C26.523,16.529,26.539,17.381,26.539,18.232Z" transform="translate(0 0)"/>
    <path id="Path_884" data-name="Path 884" class="cls-2" d="M242.913,167.248c-.79,0-1.58,0-2.369,0a.925.925,0,0,1-1.018-1.009q-.006-2.384,0-4.769a.927.927,0,1,1,1.847,0c0,1.21.008,2.42,0,3.63,0,.233.048.312.3.309,1.23-.014,2.461-.007,3.692,0a.9.9,0,0,1,.854.5.874.874,0,0,1-.056.934.922.922,0,0,1-.814.412q-1.215,0-2.431,0S242.913,167.249,242.913,167.248Z" transform="translate(-224.743 -150.557)"/>
  </g>
</svg>
