<svg xmlns="http://www.w3.org/2000/svg" viewBox="0 0 48.062 40.088">
  <defs>
    <style>
      .cls-1 {
        fill: #fff;
        stroke: #2c9984;
      }

      .cls-2 {
        fill: #2c9984;
      }

      .cls-3 {
        fill: #3d3e3e;
      }

      .cls-4 {
        fill: #333;
        stroke: #333;
        stroke-width: 0.5px;
      }

      .cls-5, .cls-7 {
        fill: none;
      }

      .cls-5 {
        stroke: #3d3e3e;
        stroke-linecap: round;
        stroke-width: 1.2px;
      }

      .cls-6 {
        stroke: none;
      }
    </style>
  </defs>
  <g id="Group_1045" data-name="Group 1045" transform="translate(-552.75 -747.484)">
    <g id="Successfully_signed" transform="translate(581.438 768.198)">
      <g id="Ellipse_48" data-name="Ellipse 48" class="cls-1" transform="translate(0 0)">
        <ellipse class="cls-6" cx="9.687" cy="9.687" rx="9.687" ry="9.687"/>
        <ellipse class="cls-7" cx="9.687" cy="9.687" rx="9.187" ry="9.187"/>
      </g>
      <path id="Union_26" data-name="Union 26" class="cls-2" d="M.878,6.151A.879.879,0,0,1,0,5.272a.9.9,0,0,1,.012-.146A.9.9,0,0,1,0,4.979V.879a.879.879,0,1,1,1.757,0V4.394H8.494a.879.879,0,0,1,0,1.757Z" transform="translate(4.093 10.311) rotate(-45)"/>
    </g>
    <g id="inactive_Shuttle" data-name="inactive Shuttle" transform="translate(553 747.734)">
      <path id="Path_137" data-name="Path 137" class="cls-3" d="M49.772,280a1.772,1.772,0,1,0,1.772,1.772A1.77,1.77,0,0,0,49.772,280Zm0,2.658a.886.886,0,1,1,.886-.886A.889.889,0,0,1,49.772,282.658Z" transform="translate(-43.839 -258.241)"/>
      <path id="Path_139" data-name="Path 139" class="cls-3" d="M368,281.772A1.772,1.772,0,1,0,369.772,280,1.77,1.77,0,0,0,368,281.772Zm2.658,0a.886.886,0,1,1-.886-.886A.889.889,0,0,1,370.658,281.772Z" transform="translate(-339.503 -258.241)"/>
      <path id="Path_140" data-name="Path 140" class="cls-3" d="M208,32h4.778v1.195H208Z" transform="translate(-192.47 -29.611)"/>
      <path id="Path_141" data-name="Path 141" class="cls-4" d="M35.241,5.973H32.852a.6.6,0,0,0-.6.6v5.973a.6.6,0,0,0,.6.6h.6v1.195H31.06V2.389A2.387,2.387,0,0,0,28.671,0H7.168A2.387,2.387,0,0,0,4.778,2.389V14.335H2.389V13.141h.6a.6.6,0,0,0,.6-.6V6.57a.6.6,0,0,0-.6-.6H.6a.6.6,0,0,0-.6.6v5.973a.6.6,0,0,0,.6.6h.6v1.792a.6.6,0,0,0,.6.6H4.778v2.389H3.584a2.387,2.387,0,0,0-2.389,2.389v5.973a2.4,2.4,0,0,0,1.911,2.344l.269,1.083a1.782,1.782,0,0,0,1.4,1.322v4.211a.6.6,0,0,0,.6.6h7.168a.6.6,0,0,0,.6-.6V31.06H22.7v4.181a.6.6,0,0,0,.6.6h7.168a.6.6,0,0,0,.6-.6V31.023a1.793,1.793,0,0,0,1.4-1.322l.269-1.083a2.4,2.4,0,0,0,1.911-2.344V20.3a2.387,2.387,0,0,0-2.389-2.389H31.06V15.523h2.987a.6.6,0,0,0,.6-.6V13.133h.6a.6.6,0,0,0,.6-.6V6.57A.6.6,0,0,0,35.241,5.973ZM1.195,7.168H2.389v4.778H1.195ZM11.946,34.644H5.973V31.06h5.973Zm17.919,0H23.892V31.06h5.973Zm1.441-5.234a.6.6,0,0,1-.582.455H5.114a.6.6,0,0,1-.582-.455l-.187-.739h27.14Zm2.143-9.1v5.973a1.2,1.2,0,0,1-1.195,1.195H3.584a1.2,1.2,0,0,1-1.195-1.195V20.308a1.2,1.2,0,0,1,1.195-1.195H32.255A1.2,1.2,0,0,1,33.449,20.308Zm-5.973-2.389H8.362V5.973H27.476Zm1.195,0V5.376a.6.6,0,0,0-.6-.6H7.765a.6.6,0,0,0-.6.6V17.919H5.973V2.389A1.2,1.2,0,0,1,7.168,1.195h21.5a1.2,1.2,0,0,1,1.195,1.195v15.53Zm5.973-5.973H33.449V7.168h1.195Z"/>
      <path id="Path_144" data-name="Path 144" class="cls-5" d="M0,2.166s6.429-4.874,14.7,0" transform="translate(25.451 25.747) rotate(180)"/>
    </g>
  </g>
</svg>
