<svg xmlns="http://www.w3.org/2000/svg" viewBox="0 0 30 31.197">
  <defs>
    <style>
      .cls-1 {
        fill: #333;
      }

      .cls-2 {
        fill: #2c9984;
      }
    </style>
  </defs>
  <g id="Reward" transform="translate(0.158)">
    <path id="Path_800" data-name="Path 800" class="cls-1" d="M29.842,7.419c-.081.475-.15.957-.256,1.432a6.194,6.194,0,0,1-1.294,2.636,10.467,10.467,0,0,1-2.369,2.2,5.237,5.237,0,0,1-2.77.892c-.194,0-.244.111-.306.254a10.734,10.734,0,0,1-1.776,2.928,8.227,8.227,0,0,1-5.227,2.954v6.364c.1.007.213.013.319.013.863,0,1.732-.013,2.595.007a1.034,1.034,0,0,1,.932,1.516,1,1,0,0,1-.982.56c-1.294-.007-2.582,0-3.876,0-1.325,0-2.645.007-3.97,0a.985.985,0,0,1-1.05-.931A1.008,1.008,0,0,1,10.842,27.1c.857-.013,1.707,0,2.563,0h.388c.006-.13.019-.221.019-.319V20.954c0-.163-.006-.28-.206-.319a8.752,8.752,0,0,1-5.777-4.087C7.466,16,7.2,15.377,6.885,14.8c-.05-.085-.144-.2-.219-.2a5.688,5.688,0,0,1-3.732-1.523A8.123,8.123,0,0,1,.227,9.338,9.548,9.548,0,0,1-.036,5.1,1.009,1.009,0,0,1,1.04,4.178H5.853V3.052c0-.573.025-1.152-.006-1.724A1.212,1.212,0,0,1,6.647,0H23.09a1.2,1.2,0,0,1,.788,1.315c-.025.625-.006,1.256-.006,1.887v.963h4.783a1.012,1.012,0,0,1,1.069.957c.038.247.081.488.119.735ZM7.867,2.1v.325c0,1.679-.013,3.364.006,5.043.013,1.256-.019,2.525.113,3.768a9.3,9.3,0,0,0,2.632,5.72,5.83,5.83,0,0,0,8.9-.3,9.559,9.559,0,0,0,2.313-6.072c.088-2.753.038-5.505.044-8.265a1.452,1.452,0,0,0-.031-.221ZM5.847,6.26H1.877A5.542,5.542,0,0,0,2.771,9.9a5.865,5.865,0,0,0,3.407,2.544C5.685,10.38,5.928,8.323,5.847,6.26Zm18.043.007a33.857,33.857,0,0,1-.306,6.163c2.407-.436,4.67-3.781,4.207-6.163Z" transform="translate(0)"/>
    <path id="Path_801" data-name="Path 801" class="cls-2" d="M95.275,468.138c-.425-.1-.789-.227-.913-.475-.217-.419.371-.8,1.245-.806,2.451,0,4.9,0,7.346,0h12.489c.673,0,1.16.2,1.276.519s-.186.59-.812.726c-.046.008-.085.024-.131.036Z" transform="translate(-90.707 -436.941)"/>
  </g>
</svg>
