<svg xmlns="http://www.w3.org/2000/svg" viewBox="0 0 86.667 86.667">
  <defs>
    <style>
      .cls-1 {
        fill: #333;
      }

      .cls-2 {
        fill: #f6cf65;
        fill-rule: evenodd;
      }
    </style>
  </defs>
  <g id="Group_1018" data-name="Group 1018" transform="translate(-650.667 -4552.667)">
    <rect id="Rectangle_336" data-name="Rectangle 336" class="cls-1" width="86.667" height="86.667" rx="22" transform="translate(650.667 4552.667)"/>
    <g id="Group_38" data-name="Group 38" transform="translate(669.733 4568.267)">
      <path id="Path_6" data-name="Path 6" class="cls-2" d="M45.435,12.437a24.316,24.316,0,0,0-2.8-4.008,24.037,24.037,0,0,0-5.942-5.011A22.164,22.164,0,0,0,29.5.59,32.468,32.468,0,0,0,25.711.041a23.147,23.147,0,0,0-6.965.593A23.524,23.524,0,0,0,13.679,2.45,24.392,24.392,0,0,0,2.067,14.658,21.223,21.223,0,0,0,.426,20.394C.258,21.72.139,23.055,0,24.386a37.837,37.837,0,0,0,.673,5.647c.282,1.122.608,2.234.955,3.339a24.46,24.46,0,0,0,2.238,4.9A33.869,33.869,0,0,0,9.852,45.76a44.658,44.658,0,0,0,6.3,4.982,49.75,49.75,0,0,0,7.581,4.11c.219.1.512.23.7.158a40.517,40.517,0,0,0,5.621-2.766,46.56,46.56,0,0,0,6.337-4.383,37.08,37.08,0,0,0,7.453-8.152,29.109,29.109,0,0,0,3.7-8.052,27.046,27.046,0,0,0,.9-5.321,24.938,24.938,0,0,0-.9-8.9A23.475,23.475,0,0,0,45.435,12.437ZM18.621,41.083a3.525,3.525,0,0,1-2.026-.638A17.587,17.587,0,0,1,16.76,8.51a3.483,3.483,0,0,1,.949-.408l.02-.009a.219.219,0,0,1,.054-.011,3.546,3.546,0,0,1,2.06,6.776l0,0a10.575,10.575,0,0,0-.076,19.274.192.192,0,0,1,.072.061,3.552,3.552,0,0,1-1.216,6.889ZM24.3,29.1a4.472,4.472,0,1,1,4.52-4.472A4.5,4.5,0,0,1,24.3,29.1Zm7.755,11.337a3.549,3.549,0,1,1-3.534-6.124.136.136,0,0,1,.046-.041,10.579,10.579,0,0,0,.3-19.385c-.015-.007-.024-.013-.037-.02a3.549,3.549,0,0,1,1.192-6.891c.041,0,.08,0,.119.007,0,0,0,0,0,0a1.217,1.217,0,0,1,.582.069,3.549,3.549,0,0,1,1.168.469,17.587,17.587,0,0,1,.163,31.92Z" transform="translate(0 0.015)"/>
    </g>
  </g>
</svg>
