<svg xmlns="http://www.w3.org/2000/svg" viewBox="0 0 191 76.063">
  <defs>
    <style>
      .cls-1 {
        fill: #333;
        fill-rule: evenodd;
      }
    </style>
  </defs>
  <g id="Group_39" data-name="Group 39" transform="translate(0 0.015)">
    <g id="Group_38" data-name="Group 38" transform="translate(0 -0.015)">
      <path id="Path_6" data-name="Path 6" class="cls-1" d="M90.148,39.745h3.66V23.119h-3.66Zm3.174,8.244v-.024a2.566,2.566,0,0,0-.7-1.869,3.263,3.263,0,0,0-2.385-.831H86.494v8.181h1.8V50.827H89.71l1.755,2.619h2.106l-2-2.922A2.537,2.537,0,0,0,93.322,47.989Zm-1.824.1c0,.69-.5,1.158-1.38,1.158H88.294V46.894h1.788c.876,0,1.416.4,1.416,1.17Zm-2.6-11.022-2.328-2.352a6.007,6.007,0,0,1-4.374,1.947,4.939,4.939,0,0,1-4.824-5.226v-.048a4.927,4.927,0,0,1,4.824-5.178,6.15,6.15,0,0,1,4.254,1.875L88.774,25.4a8.585,8.585,0,0,0-6.561-2.565,8.455,8.455,0,0,0-8.676,8.6v.048a8.4,8.4,0,0,0,8.532,8.55A8.5,8.5,0,0,0,88.894,37.063ZM99.343,53.449h1.8V45.268h-1.8ZM76.69,45.268H73.5v8.181H76.69a4.1,4.1,0,0,0,4.35-4.089v-.024A4.079,4.079,0,0,0,76.69,45.268Zm2.466,4.113a2.331,2.331,0,0,1-2.466,2.442H75.3V46.891H76.69a2.349,2.349,0,0,1,2.466,2.466ZM62.783,17.191a33.6,33.6,0,0,0-3.876-5.538A33.215,33.215,0,0,0,50.7,4.73,30.626,30.626,0,0,0,40.766.821,44.865,44.865,0,0,0,35.528.062,31.985,31.985,0,0,0,25.9.881a32.506,32.506,0,0,0-7,2.511A33.706,33.706,0,0,0,2.856,20.26,29.326,29.326,0,0,0,.588,28.186C.357,30.019.192,31.864,0,33.7a52.284,52.284,0,0,0,.93,7.8c.39,1.551.84,3.087,1.32,4.614A33.8,33.8,0,0,0,5.343,52.9a46.8,46.8,0,0,0,8.271,10.341,61.71,61.71,0,0,0,8.7,6.885A68.745,68.745,0,0,0,32.789,75.8c.3.132.708.318.963.219A55.988,55.988,0,0,0,41.519,72.2a64.339,64.339,0,0,0,8.757-6.057,51.238,51.238,0,0,0,10.3-11.265A40.223,40.223,0,0,0,65.687,43.75,37.373,37.373,0,0,0,66.926,36.4a34.46,34.46,0,0,0-1.245-12.3A32.439,32.439,0,0,0,62.783,17.191ZM25.73,56.776a4.87,4.87,0,0,1-2.8-.882,24.3,24.3,0,0,1,.228-44.129A4.813,4.813,0,0,1,24.47,11.2c.009,0,.018-.009.027-.012a.3.3,0,0,1,.075-.015,4.9,4.9,0,0,1,2.847,9.363l0,0a14.613,14.613,0,0,0-.1,26.633.265.265,0,0,1,.1.084,4.908,4.908,0,0,1-1.68,9.519Zm7.854-16.563a6.18,6.18,0,1,1,6.246-6.18A6.212,6.212,0,0,1,33.584,40.213ZM44.3,55.879a4.9,4.9,0,1,1-4.884-8.463.188.188,0,0,1,.063-.057,14.618,14.618,0,0,0,.411-26.786c-.021-.009-.033-.018-.051-.027a4.9,4.9,0,0,1,1.647-9.522c.057,0,.111.006.165.009,0,0,0-.006.006-.006a1.681,1.681,0,0,1,.8.1,4.9,4.9,0,0,1,1.614.648A24.3,24.3,0,0,1,44.3,55.879Zm75.448-19.221a4.939,4.939,0,0,1-4.824-5.226v-.048a4.927,4.927,0,0,1,4.824-5.178A6.15,6.15,0,0,1,124,28.081L126.33,25.4a8.585,8.585,0,0,0-6.561-2.565,8.455,8.455,0,0,0-8.676,8.6v.048a8.4,8.4,0,0,0,8.532,8.55,8.506,8.506,0,0,0,6.822-2.97L124.119,34.7A5.978,5.978,0,0,1,119.748,36.658ZM164.583,23l-7.131,16.746h3.732l1.521-3.729h7.035l1.521,3.729h3.828L167.957,23Zm-.573,9.786,2.211-5.391,2.211,5.391Zm22.925,1.023a5.161,5.161,0,0,0,3.564-5.154v-.048a5.216,5.216,0,0,0-1.425-3.8,6.632,6.632,0,0,0-4.848-1.686h-7.6V39.745h3.66V34.423h2.877l3.564,5.322H191Zm-.141-4.965c0,1.4-1.023,2.352-2.8,2.352h-3.708V26.419h3.636c1.782,0,2.877.807,2.877,2.376Zm-38.93-5.724H144.2V39.745h11.955V36.421h-8.295Zm-9.24,9.525c0,2.637-1.356,3.99-3.588,3.99s-3.588-1.4-3.588-4.11v-9.4h-3.66v9.5c0,4.893,2.733,7.386,7.2,7.386s7.3-2.469,7.3-7.506V23.119h-3.66v9.525ZM109.987,51.028l-2.139-5.76h-1.989l3.309,8.238h1.59l3.309-8.238h-1.941Zm10.83-.9h3.858v-1.6h-3.858V46.867H125.2v-1.6h-6.174v8.181h6.231v-1.6h-4.443Zm-14.934-16.32a5.161,5.161,0,0,0,3.564-5.154v-.048a5.217,5.217,0,0,0-1.425-3.8,6.632,6.632,0,0,0-4.848-1.686h-7.6V39.745h3.66V34.423h2.877l3.564,5.322h4.278Zm-.141-4.965c0,1.4-1.023,2.352-2.8,2.352H99.229V26.419h3.636c1.782,0,2.877.807,2.877,2.376Z" transform="translate(0 0.015)"/>
    </g>
  </g>
</svg>
