<svg xmlns="http://www.w3.org/2000/svg" xmlns:xlink="http://www.w3.org/1999/xlink" viewBox="0 0 504 539"><defs><style>.a,.i{fill:#fff;}.b,.f{fill:none;stroke:#707070;}.b{opacity:0.35;}.c{fill:#a9afaf;font-family:TitilliumWeb-Regular, Titillium Web;}.c,.h,.i{font-size:18px;}.d{fill:#393b3b;font-size:20px;}.d,.h,.i{font-family:TitilliumWeb-SemiBold, Titillium Web;font-weight:600;}.e{fill:#f6cf65;}.f{stroke-linecap:round;stroke-width:2px;stroke-dasharray:3 5;}.g{fill:#3d3e3e;}.h{fill:#707070;}.j{filter:url(#a);}</style><filter id="a" x="0" y="0" width="504" height="539" filterUnits="userSpaceOnUse"><feOffset input="SourceAlpha"/><feGaussianBlur stdDeviation="20" result="b"/><feFlood flood-color="#000e6a" flood-opacity="0.078"/><feComposite operator="in" in2="b"/><feComposite in="SourceGraphic"/></filter></defs><g transform="translate(-759 -2010)"><g class="j" transform="matrix(1, 0, 0, 1, 759, 2010)"><path class="a" d="M10,0H374a10,10,0,0,1,10,10V409a10,10,0,0,1-10,10H10A10,10,0,0,1,0,409V10A10,10,0,0,1,10,0Z" transform="translate(60 60)"/></g><g transform="translate(4 1423)"><path class="b" d="M0,0H316" transform="translate(835.5 723.5)"/><text class="c" transform="translate(835 670)"><tspan x="0" y="0">Name</tspan></text><text class="d" transform="translate(835 703)"><tspan x="0" y="0">Terminal 1 Passengers</tspan></text><path class="b" d="M0,0H288.5" transform="translate(863 822.5)"/><text class="c" transform="translate(863 769)"><tspan x="0" y="0">From</tspan></text><text class="d" transform="translate(863 802)"><tspan x="0" y="0">SafeNY Parking Lot</tspan></text><line class="b" x2="288.5" transform="translate(863 921.5)"/><text class="c" transform="translate(863 868)"><tspan x="0" y="0">To</tspan></text><text class="d" transform="translate(863 901)"><tspan x="0" y="0">Terminal-1, Airport Lax</tspan></text><line class="b" x2="316" transform="translate(835.5 1024.5)"/><text class="c" transform="translate(835 971)"><tspan x="0" y="0">Number of Passengers</tspan></text><text class="d" transform="translate(835 1004)"><tspan x="0" y="0">6</tspan></text><g transform="translate(806 487)"><circle class="e" cx="6.5" cy="6.5" r="6.5" transform="translate(29 267)"/><path class="f" d="M0,0V81.5" transform="translate(35.5 284.5)"/><g transform="translate(29 371)"><g transform="translate(-12.883 -1)"><path class="g" d="M19.691,0a6.816,6.816,0,0,0-6.808,6.808,6.641,6.641,0,0,0,.6,2.779A42.926,42.926,0,0,0,19.4,18.361a.379.379,0,0,0,.574,0A42.947,42.947,0,0,0,25.9,9.587a6.638,6.638,0,0,0,.6-2.779A6.817,6.817,0,0,0,19.691,0Zm0,10.345a3.537,3.537,0,1,1,3.536-3.536A3.541,3.541,0,0,1,19.691,10.345Z"/></g></g></g><g transform="translate(815.396 399)"><rect class="a" width="387.271" height="51" transform="translate(0 616)"/><rect class="e" width="188" height="51" transform="translate(199.271 616)"/><text class="h" transform="translate(69.53 648)"><tspan x="0" y="0">Cancel</tspan></text><g transform="translate(273.39 627)"><text class="i" transform="translate(0 20)"><tspan x="0" y="0">Add</tspan></text></g></g></g></g></svg>