<svg xmlns="http://www.w3.org/2000/svg" xmlns:xlink="http://www.w3.org/1999/xlink" viewBox="0 0 504 322"><defs><style>.a,.f{fill:#fff;}.b{fill:#3b3b39;font-size:19px;font-family:TitilliumWeb-SemiBold, Titillium Web;font-weight:600;}.c{fill:none;stroke:#707070;opacity:0.15;}.d{fill:#858b8b;}.e{fill:#f6cf65;}.f{font-size:16px;font-family:Montserrat-Regular, Montserrat;}.g{filter:url(#c);}.h{filter:url(#a);}</style><filter id="a" x="0" y="0" width="504" height="303.5" filterUnits="userSpaceOnUse"><feOffset input="SourceAlpha"/><feGaussianBlur stdDeviation="20" result="b"/><feFlood flood-color="#000e6a" flood-opacity="0.078"/><feComposite operator="in" in2="b"/><feComposite in="SourceGraphic"/></filter><filter id="c" x="165" y="254" width="198" height="68" filterUnits="userSpaceOnUse"><feOffset dy="3" input="SourceAlpha"/><feGaussianBlur stdDeviation="3" result="d"/><feFlood flood-color="#000e6a" flood-opacity="0.078"/><feComposite operator="in" in2="d"/><feComposite in="SourceGraphic"/></filter></defs><g transform="translate(-761 -1323)"><g class="h" transform="matrix(1, 0, 0, 1, 761, 1323)"><path class="a" d="M10,0H374c5.523,0,10,3.367,10,7.52V175.98c0,4.153-4.477,7.52-10,7.52H10c-5.523,0-10-3.367-10-7.52V7.52C0,3.367,4.477,0,10,0Z" transform="translate(60 60)"/></g><g transform="translate(821 1241)"><g transform="translate(-6)"><text class="b" transform="translate(74 172)"><tspan x="0" y="0">Dallas Rental Cars</tspan></text></g><line class="c" x2="384.503" transform="translate(0 199.5)"/><g transform="translate(29 152.3)"><path class="d" d="M17.978,6.191V3.44a.687.687,0,0,0-.688-.688h0a.687.687,0,0,1-.688-.688V.688A.687.687,0,0,0,15.914,0H7.567a.687.687,0,0,0-.688.688V2.064a.687.687,0,0,1-.688.688h0A.687.687,0,0,0,5.5,3.44V6.191a.687.687,0,0,1-.688.688H.688A.687.687,0,0,0,0,7.567V22.793a.687.687,0,0,0,.688.688H22.793a.687.687,0,0,0,.688-.688V7.567a.687.687,0,0,0-.688-.688H18.666A.687.687,0,0,1,17.978,6.191ZM8.943,1.376h5.6a.687.687,0,0,1,.688.688h0a.687.687,0,0,1-.688.688h-5.6a.687.687,0,0,1-.688-.688h0A.687.687,0,0,1,8.943,1.376ZM7.567,4.128h8.347a.687.687,0,0,1,.688.688V6.191a.687.687,0,0,1-.688.688H7.567a.687.687,0,0,1-.688-.688V4.815A.687.687,0,0,1,7.567,4.128Zm8.347,11.007H7.567a.687.687,0,0,1-.688-.688V13.071a.687.687,0,0,1,.688-.688h8.347a.687.687,0,0,1,.688.688v1.376A.687.687,0,0,1,15.914,15.134ZM7.567,16.51h2.8a.687.687,0,0,1,.688.688v4.219a.687.687,0,0,1-.688.688h-2.8a.687.687,0,0,1-.688-.688V17.2A.687.687,0,0,1,7.567,16.51Zm5.549,0h2.8a.687.687,0,0,1,.688.688v4.219a.687.687,0,0,1-.688.688h-2.8a.687.687,0,0,1-.688-.688V17.2A.687.687,0,0,1,13.116,16.51Zm2.8-5.5H7.567a.687.687,0,0,1-.688-.688V8.943a.687.687,0,0,1,.688-.688h8.347a.687.687,0,0,1,.688.688v1.376A.687.687,0,0,1,15.914,11.007ZM2.064,8.255H4.815a.687.687,0,0,1,.688.688V21.417a.687.687,0,0,1-.688.688H2.064a.687.687,0,0,1-.688-.688V8.943A.687.687,0,0,1,2.064,8.255Zm19.354,13.85H18.666a.687.687,0,0,1-.688-.688V8.943a.687.687,0,0,1,.688-.688h2.752a.687.687,0,0,1,.688.688V21.417A.687.687,0,0,1,21.417,22.105Z"/><rect class="d" width="1.376" height="2.752" transform="translate(2.752 9.631)"/><rect class="d" width="1.376" height="2.752" transform="translate(2.752 13.759)"/><rect class="d" width="1.376" height="2.752" transform="translate(19.354 9.631)"/><rect class="d" width="1.376" height="2.752" transform="translate(19.354 13.759)"/></g></g><g transform="translate(815 1306)"><text class="b" transform="translate(74 172)"><tspan x="0" y="0">Hotel Luxury</tspan></text></g><line class="c" x2="384.503" transform="translate(821 1505.5)"/><g transform="translate(850 1458.3)"><path class="d" d="M17.978,6.191V3.44a.687.687,0,0,0-.688-.688h0a.687.687,0,0,1-.688-.688V.688A.687.687,0,0,0,15.914,0H7.567a.687.687,0,0,0-.688.688V2.064a.687.687,0,0,1-.688.688h0A.687.687,0,0,0,5.5,3.44V6.191a.687.687,0,0,1-.688.688H.688A.687.687,0,0,0,0,7.567V22.793a.687.687,0,0,0,.688.688H22.793a.687.687,0,0,0,.688-.688V7.567a.687.687,0,0,0-.688-.688H18.666A.687.687,0,0,1,17.978,6.191ZM8.943,1.376h5.6a.687.687,0,0,1,.688.688h0a.687.687,0,0,1-.688.688h-5.6a.687.687,0,0,1-.688-.688h0A.687.687,0,0,1,8.943,1.376ZM7.567,4.128h8.347a.687.687,0,0,1,.688.688V6.191a.687.687,0,0,1-.688.688H7.567a.687.687,0,0,1-.688-.688V4.815A.687.687,0,0,1,7.567,4.128Zm8.347,11.007H7.567a.687.687,0,0,1-.688-.688V13.071a.687.687,0,0,1,.688-.688h8.347a.687.687,0,0,1,.688.688v1.376A.687.687,0,0,1,15.914,15.134ZM7.567,16.51h2.8a.687.687,0,0,1,.688.688v4.219a.687.687,0,0,1-.688.688h-2.8a.687.687,0,0,1-.688-.688V17.2A.687.687,0,0,1,7.567,16.51Zm5.549,0h2.8a.687.687,0,0,1,.688.688v4.219a.687.687,0,0,1-.688.688h-2.8a.687.687,0,0,1-.688-.688V17.2A.687.687,0,0,1,13.116,16.51Zm2.8-5.5H7.567a.687.687,0,0,1-.688-.688V8.943a.687.687,0,0,1,.688-.688h8.347a.687.687,0,0,1,.688.688v1.376A.687.687,0,0,1,15.914,11.007ZM2.064,8.255H4.815a.687.687,0,0,1,.688.688V21.417a.687.687,0,0,1-.688.688H2.064a.687.687,0,0,1-.688-.688V8.943A.687.687,0,0,1,2.064,8.255Zm19.354,13.85H18.666a.687.687,0,0,1-.688-.688V8.943a.687.687,0,0,1,.688-.688h2.752a.687.687,0,0,1,.688.688V21.417A.687.687,0,0,1,21.417,22.105Z"/><rect class="d" width="1.376" height="2.752" transform="translate(2.752 9.631)"/><rect class="d" width="1.376" height="2.752" transform="translate(2.752 13.759)"/><rect class="d" width="1.376" height="2.752" transform="translate(19.354 9.631)"/><rect class="d" width="1.376" height="2.752" transform="translate(19.354 13.759)"/></g><g transform="translate(821 1372)"><g transform="translate(-6)"><text class="b" transform="translate(74 172)"><tspan x="0" y="0">SafeNY Parking Lot</tspan></text></g><g transform="translate(29 152.3)"><path class="d" d="M17.978,6.191V3.44a.687.687,0,0,0-.688-.688h0a.687.687,0,0,1-.688-.688V.688A.687.687,0,0,0,15.914,0H7.567a.687.687,0,0,0-.688.688V2.064a.687.687,0,0,1-.688.688h0A.687.687,0,0,0,5.5,3.44V6.191a.687.687,0,0,1-.688.688H.688A.687.687,0,0,0,0,7.567V22.793a.687.687,0,0,0,.688.688H22.793a.687.687,0,0,0,.688-.688V7.567a.687.687,0,0,0-.688-.688H18.666A.687.687,0,0,1,17.978,6.191ZM8.943,1.376h5.6a.687.687,0,0,1,.688.688h0a.687.687,0,0,1-.688.688h-5.6a.687.687,0,0,1-.688-.688h0A.687.687,0,0,1,8.943,1.376ZM7.567,4.128h8.347a.687.687,0,0,1,.688.688V6.191a.687.687,0,0,1-.688.688H7.567a.687.687,0,0,1-.688-.688V4.815A.687.687,0,0,1,7.567,4.128Zm8.347,11.007H7.567a.687.687,0,0,1-.688-.688V13.071a.687.687,0,0,1,.688-.688h8.347a.687.687,0,0,1,.688.688v1.376A.687.687,0,0,1,15.914,15.134ZM7.567,16.51h2.8a.687.687,0,0,1,.688.688v4.219a.687.687,0,0,1-.688.688h-2.8a.687.687,0,0,1-.688-.688V17.2A.687.687,0,0,1,7.567,16.51Zm5.549,0h2.8a.687.687,0,0,1,.688.688v4.219a.687.687,0,0,1-.688.688h-2.8a.687.687,0,0,1-.688-.688V17.2A.687.687,0,0,1,13.116,16.51Zm2.8-5.5H7.567a.687.687,0,0,1-.688-.688V8.943a.687.687,0,0,1,.688-.688h8.347a.687.687,0,0,1,.688.688v1.376A.687.687,0,0,1,15.914,11.007ZM2.064,8.255H4.815a.687.687,0,0,1,.688.688V21.417a.687.687,0,0,1-.688.688H2.064a.687.687,0,0,1-.688-.688V8.943A.687.687,0,0,1,2.064,8.255Zm19.354,13.85H18.666a.687.687,0,0,1-.688-.688V8.943a.687.687,0,0,1,.688-.688h2.752a.687.687,0,0,1,.688.688V21.417A.687.687,0,0,1,21.417,22.105Z"/><rect class="d" width="1.376" height="2.752" transform="translate(2.752 9.631)"/><rect class="d" width="1.376" height="2.752" transform="translate(2.752 13.759)"/><rect class="d" width="1.376" height="2.752" transform="translate(19.354 9.631)"/><rect class="d" width="1.376" height="2.752" transform="translate(19.354 13.759)"/></g></g><g transform="translate(-41 -251)"><g class="g" transform="matrix(1, 0, 0, 1, 802, 1574)"><rect class="e" width="180" height="50" rx="25" transform="translate(174 260)"/></g><text class="f" transform="translate(1004 1865)"><tspan x="0" y="0">Select Provider</tspan></text></g></g></svg>